<svg xmlns="http://www.w3.org/2000/svg" xmlns:xlink="http://www.w3.org/1999/xlink" viewBox="0,0,256,256" width="30px" height="30px"><g fill-opacity="0" fill="#dddddd" fill-rule="nonzero" stroke="none" stroke-width="1" stroke-linecap="butt" stroke-linejoin="miter" stroke-miterlimit="10" stroke-dasharray="" stroke-dashoffset="0" font-family="none" font-weight="none" font-size="none" text-anchor="none" style="mix-blend-mode: normal"><path d="M0,256v-256h256v256z" id="bgRectangle"></path></g><g fill="none" fill-rule="nonzero" stroke="none" stroke-width="1" stroke-linecap="butt" stroke-linejoin="miter" stroke-miterlimit="10" stroke-dasharray="" stroke-dashoffset="0" font-family="none" font-weight="none" font-size="none" text-anchor="none" style="mix-blend-mode: normal"><g transform="scale(6.4,6.4)"><path d="M28.229,29.396c1.528,-1.345 2.711,-3.051 3.438,-4.968c0.187,-0.491 0.321,-0.905 0.423,-1.303l0.16,-0.625h-11.75v-6h17.662c0.225,1.167 0.338,2.343 0.338,3.5c0,5.005 -2.069,9.834 -5.692,13.32z" fill="#8bb7f0"></path><path d="M37.744,17c0.17,1.002 0.256,2.008 0.256,3c0,4.719 -1.891,9.277 -5.216,12.641l-3.802,-3.259c1.385,-1.333 2.465,-2.964 3.153,-4.777c0.192,-0.506 0.332,-0.937 0.44,-1.355l0.322,-1.25h-1.291h-10.606v-5h16.744M38.57,16h-18.57v7h11.607c-0.11,0.428 -0.252,0.842 -0.406,1.25c-0.772,2.034 -2.073,3.808 -3.744,5.141l5.367,4.6c3.787,-3.473 6.176,-8.447 6.176,-13.991c0,-1.373 -0.153,-2.709 -0.43,-4z" fill="#4e7ab5"></path><path d="M32.828,22c-0.501,3.231 -2.175,6.075 -4.594,8.058l3.825,3.278c3.175,-2.873 5.329,-6.852 5.828,-11.336z" fill="#8bb7f0"></path><path d="M20,38.5c-6.903,0 -13.128,-3.773 -16.349,-9.877l4.957,-3.499c2.017,4.502 6.423,7.376 11.392,7.376c2.713,0 5.277,-0.851 7.439,-2.465l4.624,3.963c-3.368,2.908 -7.629,4.502 -12.063,4.502z" fill="#bae0bd"></path><path d="M8.411,25.875c2.201,4.367 6.624,7.125 11.589,7.125c2.688,0 5.234,-0.803 7.413,-2.329l3.876,3.322c-3.203,2.592 -7.169,4.007 -11.289,4.007c-6.57,0 -12.509,-3.513 -15.697,-9.225l4.108,-2.9M8.828,24.357l-5.82,4.108c3.115,6.239 9.544,10.535 16.992,10.535c4.949,0 9.442,-1.908 12.823,-5.009l-5.367,-4.6c-2.045,1.632 -4.634,2.609 -7.456,2.609c-5.089,0 -9.427,-3.173 -11.172,-7.643z" fill="#5e9c76"></path><path d="M28.234,30.058c-2.242,1.838 -5.109,2.942 -8.234,2.942c-5.407,0 -10.041,-3.303 -12,-8l-4.13,2.95c2.937,5.949 9.047,10.05 16.13,10.05c4.645,0 8.866,-1.775 12.059,-4.664z" fill="#bae0bd"></path><path d="M3.891,10.907c3.286,-5.813 9.419,-9.407 16.109,-9.407c4.493,0 8.8,1.632 12.186,4.607l-4.212,4.212c-2.217,-1.821 -5.03,-2.819 -7.974,-2.819c-4.84,0 -9.196,2.763 -11.271,7.093z" fill="#f78f8f"></path><path d="M20,2c4.193,0 8.22,1.462 11.449,4.136l-3.515,3.515c-2.246,-1.716 -5.029,-2.651 -7.934,-2.651c-4.828,0 -9.192,2.643 -11.445,6.832l-4.01,-3.055c3.246,-5.435 9.092,-8.777 15.455,-8.777M20,1c-7.254,0 -13.554,4.068 -16.755,10.044l5.682,4.329c1.811,-4.33 6.086,-7.373 11.073,-7.373c3.059,0 5.881,1.116 8,3l4.911,-4.911c-3.391,-3.149 -7.919,-5.089 -12.911,-5.089z" fill="#c74343"></path><g fill="#f78f8f"><path d="M20,7v-5c-6.93,0 -12.936,3.922 -15.944,9.662l4.056,3.09c2.018,-4.563 6.577,-7.752 11.888,-7.752z"></path></g><g><path d="M3.235,27.789c-1.152,-2.465 -1.735,-5.082 -1.735,-7.789c0,-2.838 0.661,-5.66 1.917,-8.197l4.905,3.737c-0.546,1.425 -0.822,2.923 -0.822,4.46c0,1.435 0.249,2.851 0.74,4.214z" fill="#ffeea3"></path><path d="M3.604,12.574l4.121,3.14c-0.481,1.376 -0.725,2.814 -0.725,4.286c0,1.367 0.217,2.717 0.646,4.024l-4.204,3.003c-0.958,-2.236 -1.442,-4.595 -1.442,-7.027c0,-2.559 0.552,-5.103 1.604,-7.426M3.245,11.044c-1.43,2.669 -2.245,5.716 -2.245,8.956c0,3.075 0.747,5.97 2.044,8.54l5.799,-4.142c-0.538,-1.363 -0.843,-2.844 -0.843,-4.398c0,-1.64 0.331,-3.203 0.927,-4.627l-5.682,-4.329z" fill="#ba9b48"></path></g><g fill="#ffeea3"><path d="M7,20c0,-1.869 0.402,-3.642 1.112,-5.248l-4.056,-3.09c-1.307,2.494 -2.056,5.327 -2.056,8.338c0,2.858 0.684,5.55 1.869,7.951l4.131,-2.951c-0.643,-1.539 -1,-3.228 -1,-5z"></path></g></g></g></svg>