<svg xmlns="http://www.w3.org/2000/svg" height="24" viewBox="0 -960 960 960" width="24"><path d="M227.924-275.307q56-40.846 119.115-62.769Q410.154-359.999 480-359.999t132.961 21.923q63.115 21.923 119.115 62.769 37.308-46 55.616-96.423Q806-422.154 806-480q0-134-96-230t-230-96q-134 0-230 96t-96 230q0 57.846 18.308 108.27 18.308 50.423 55.616 96.423Zm252.168-150.694q-64.861 0-109.476-44.523-44.615-44.523-44.615-109.384 0-64.861 44.523-109.476 44.523-44.615 109.384-44.615 64.861 0 109.476 44.523 44.615 44.523 44.615 109.384 0 64.861-44.523 109.476-44.523 44.615-109.384 44.615Zm-.092 358q-84.154 0-159.535-32.533-75.381-32.532-131.153-88.576-55.772-56.045-88.541-131.391-32.77-75.345-32.77-159.999t32.77-159.499q32.769-74.846 88.541-130.891 55.772-56.044 131.153-88.576 75.381-32.533 160.035-32.533t159.499 32.77q74.846 32.769 130.654 88.576 55.807 55.808 88.576 130.573 32.77 74.765 32.77 160.08 0 84.154-32.533 159.535-32.532 75.381-88.576 131.153-56.045 55.772-130.81 88.541-74.765 32.77-160.08 32.77ZM480-154q49.154 0 98.423-15.923 49.27-15.923 88.27-45.231-39-28.154-87.116-43.5-48.115-15.347-99.577-15.347-51.462 0-99.77 15.154-48.308 15.154-86.923 43.693 39 29.308 88.27 45.231Q430.846-154 480-154Zm0-357.999q27.846 0 47.924-20.077 20.077-20.078 20.077-47.924t-20.077-47.924Q507.846-648.001 480-648.001t-47.924 20.077Q411.999-607.846 411.999-580t20.077 47.924q20.078 20.077 47.924 20.077ZM480-580Zm0 366Z"/></svg>